<?xml version="1.0" standalone="no"?>
<!DOCTYPE svg PUBLIC "-//W3C//DTD SVG 20010904//EN"
 "http://www.w3.org/TR/2001/REC-SVG-20010904/DTD/svg10.dtd">
<svg version="1.0" xmlns="http://www.w3.org/2000/svg"
 width="1170.000000pt" height="1170.000000pt" viewBox="0 0 1170.000000 1170.000000"
 preserveAspectRatio="xMidYMid meet">

<g transform="translate(0.000000,1170.000000) scale(0.100000,-0.100000)"
fill="#000000" stroke="none">
<path d="M7288 10933 c-10 -2 -18 -8 -18 -12 0 -4 -18 -14 -40 -21 -22 -7 -40
-16 -40 -20 0 -3 -16 -12 -35 -19 -19 -7 -35 -16 -35 -21 0 -5 -18 -15 -40
-21 -22 -7 -40 -15 -40 -19 0 -4 -13 -13 -30 -20 -16 -7 -30 -16 -30 -20 0 -5
-13 -11 -30 -15 -16 -4 -33 -12 -37 -19 -5 -7 -23 -18 -40 -25 -18 -8 -33 -17
-33 -21 0 -5 -13 -13 -30 -19 -16 -5 -30 -14 -30 -20 0 -5 -14 -12 -31 -16
-17 -4 -32 -12 -35 -19 -3 -7 -20 -19 -39 -26 -19 -8 -35 -18 -35 -22 0 -5
-11 -13 -25 -18 -14 -5 -25 -13 -25 -18 0 -4 -16 -14 -35 -22 -19 -8 -35 -18
-35 -22 0 -5 -11 -13 -25 -18 -14 -5 -25 -14 -25 -19 0 -5 -8 -12 -19 -16 -10
-3 -31 -17 -47 -30 -16 -14 -34 -25 -40 -25 -7 0 -14 -7 -18 -15 -3 -8 -12
-15 -20 -15 -9 0 -20 -9 -26 -20 -6 -11 -17 -20 -25 -20 -8 0 -18 -6 -22 -14
-4 -7 -19 -19 -33 -26 -14 -7 -31 -21 -38 -32 -7 -10 -20 -18 -28 -18 -8 0
-17 -7 -20 -15 -3 -8 -14 -17 -24 -20 -9 -3 -37 -23 -61 -45 -24 -22 -55 -49
-69 -60 -14 -11 -47 -40 -75 -65 -27 -25 -53 -45 -56 -45 -4 0 -41 -34 -82
-75 -40 -41 -77 -75 -81 -75 -8 0 -256 -248 -256 -257 0 -3 -31 -37 -70 -76
-38 -38 -70 -73 -70 -78 0 -6 -18 -26 -40 -46 -22 -21 -40 -41 -40 -46 0 -4
-16 -23 -35 -41 -19 -19 -35 -37 -35 -42 0 -5 -12 -20 -25 -33 -14 -13 -25
-27 -25 -31 0 -5 -16 -26 -35 -47 -57 -63 -65 -73 -65 -83 0 -5 -9 -15 -20
-22 -11 -7 -20 -17 -20 -23 0 -5 -11 -23 -25 -39 -13 -16 -27 -37 -30 -47 -4
-11 -10 -19 -14 -19 -5 0 -14 -13 -21 -30 -7 -16 -16 -30 -21 -30 -5 0 -14
-11 -19 -25 -5 -14 -14 -25 -19 -25 -5 0 -13 -9 -16 -20 -3 -11 -12 -26 -19
-32 -6 -7 -20 -30 -29 -50 -10 -21 -21 -38 -26 -38 -4 0 -13 -16 -21 -35 -8
-19 -17 -35 -20 -35 -3 0 -12 -16 -20 -35 -8 -19 -17 -35 -21 -35 -4 0 -12
-13 -18 -30 -5 -16 -14 -30 -19 -30 -5 0 -14 -18 -21 -40 -6 -22 -15 -40 -20
-40 -4 0 -13 -16 -21 -35 -8 -19 -17 -35 -20 -35 -4 0 -13 -18 -20 -40 -7 -22
-16 -40 -20 -40 -4 0 -13 -18 -20 -40 -7 -22 -16 -40 -20 -40 -4 0 -13 -18
-20 -40 -7 -22 -16 -40 -20 -40 -4 0 -13 -20 -19 -45 -6 -25 -15 -45 -20 -45
-5 0 -15 -22 -22 -50 -7 -27 -16 -50 -21 -50 -4 0 -13 -20 -19 -45 -6 -25 -15
-45 -19 -45 -4 0 -14 -24 -21 -52 -6 -29 -18 -58 -25 -65 -7 -7 -15 -31 -19
-53 -4 -22 -10 -40 -14 -40 -4 0 -13 -25 -20 -55 -7 -30 -16 -55 -20 -55 -4 0
-13 -29 -20 -65 -7 -36 -17 -65 -21 -65 -5 0 -14 -34 -21 -75 -7 -41 -16 -75
-20 -75 -4 0 -13 -31 -20 -70 -7 -38 -15 -70 -19 -70 -4 0 -13 -43 -20 -95 -7
-52 -17 -95 -20 -95 -4 0 -13 -51 -20 -112 -7 -62 -16 -115 -21 -118 -4 -3
-13 -77 -20 -165 -7 -88 -18 -163 -23 -167 -17 -11 -15 -890 2 -895 7 -3 12
-22 12 -46 0 -66 23 -291 30 -297 4 -3 12 -52 19 -110 7 -58 16 -107 20 -110
4 -3 14 -47 21 -98 8 -50 17 -92 21 -92 3 0 12 -34 18 -75 7 -41 16 -75 20
-75 4 0 13 -31 20 -70 7 -38 16 -70 21 -70 4 0 14 -29 21 -65 7 -36 16 -65 20
-65 4 0 13 -25 20 -55 7 -30 15 -55 19 -55 4 0 12 -25 19 -55 7 -30 16 -55 21
-55 4 0 11 -18 15 -40 4 -22 12 -46 19 -53 7 -6 18 -33 25 -59 8 -27 17 -48
20 -48 4 0 13 -20 20 -45 7 -25 17 -45 21 -45 4 0 13 -20 19 -45 6 -25 15 -45
20 -45 4 0 13 -18 20 -40 6 -22 15 -40 20 -40 4 0 13 -18 20 -40 6 -22 15 -40
20 -40 4 0 13 -18 20 -40 6 -22 16 -40 21 -40 4 0 11 -13 15 -30 4 -16 12 -33
19 -37 7 -5 18 -24 26 -43 8 -19 19 -38 26 -43 7 -4 15 -21 19 -37 4 -17 10
-30 15 -30 4 0 13 -14 20 -30 7 -17 16 -30 19 -30 4 0 13 -16 21 -35 8 -19 17
-35 21 -35 5 0 16 -17 26 -38 9 -20 23 -43 29 -50 7 -6 16 -21 19 -32 3 -11
10 -20 14 -20 5 0 14 -13 21 -30 7 -17 16 -30 21 -30 5 0 14 -11 19 -25 5 -14
13 -25 17 -25 5 0 15 -15 22 -32 8 -18 23 -39 33 -46 10 -7 18 -17 18 -23 0
-5 7 -17 16 -26 32 -37 64 -78 64 -85 0 -6 40 -52 90 -104 11 -12 20 -25 20
-30 0 -5 16 -24 35 -41 19 -18 35 -36 35 -41 0 -15 171 -199 360 -388 203
-203 267 -264 277 -264 4 0 22 -15 39 -34 17 -19 41 -39 53 -45 11 -7 31 -21
43 -32 13 -11 43 -38 67 -59 24 -22 52 -42 62 -45 11 -4 19 -11 19 -16 0 -5 8
-13 18 -16 9 -4 27 -16 38 -27 33 -33 78 -66 89 -66 6 0 16 -9 23 -20 7 -11
19 -20 27 -20 8 0 15 -5 15 -10 0 -6 11 -15 25 -20 14 -5 25 -14 25 -19 0 -5
8 -12 19 -16 10 -3 31 -17 47 -30 16 -14 35 -25 42 -25 6 0 12 -5 12 -10 0 -6
11 -15 25 -20 14 -5 25 -13 25 -18 0 -4 16 -14 35 -22 19 -8 35 -18 35 -22 0
-5 11 -13 25 -18 14 -5 25 -13 25 -18 0 -4 16 -14 35 -22 19 -8 35 -17 35 -20
0 -3 16 -12 35 -20 19 -8 35 -17 35 -21 0 -3 14 -12 30 -19 17 -7 30 -16 30
-19 0 -4 16 -13 35 -21 19 -8 35 -17 35 -21 0 -4 10 -9 23 -13 13 -3 34 -15
47 -26 41 -36 43 -21 2 20 -21 22 -42 40 -46 40 -8 0 -34 25 -303 288 -95 93
-173 172 -173 176 0 3 -27 34 -60 67 -32 34 -62 68 -65 78 -3 9 -18 25 -34 36
-17 11 -36 31 -43 45 -7 13 -28 38 -45 55 -18 16 -33 34 -33 39 0 5 -9 18 -20
30 -50 51 -90 98 -90 104 0 9 -39 58 -67 87 -13 12 -23 28 -23 34 0 6 -7 14
-15 17 -8 4 -15 11 -15 18 0 6 -11 24 -25 40 -14 16 -25 32 -25 36 0 4 -11 20
-25 36 -14 16 -25 35 -25 42 0 6 -5 12 -10 12 -6 0 -15 11 -20 25 -5 14 -13
25 -18 25 -4 0 -14 16 -22 35 -8 19 -18 35 -22 35 -5 0 -13 11 -18 25 -5 14
-13 25 -18 25 -4 0 -14 16 -21 35 -7 19 -16 35 -20 35 -5 0 -14 14 -21 30 -7
17 -16 30 -19 30 -4 0 -13 16 -21 35 -8 19 -17 35 -20 35 -3 0 -12 16 -20 35
-8 19 -17 35 -21 35 -4 0 -12 14 -18 30 -5 17 -14 30 -19 30 -5 0 -14 18 -21
40 -6 22 -15 40 -20 40 -4 0 -13 16 -21 35 -8 19 -17 35 -20 35 -4 0 -13 18
-20 40 -7 22 -16 40 -20 40 -4 0 -13 18 -20 40 -7 22 -16 40 -20 40 -4 0 -13
18 -20 40 -7 22 -17 40 -21 40 -5 0 -14 20 -20 45 -6 25 -15 45 -19 45 -4 0
-13 18 -20 40 -7 22 -16 40 -20 40 -4 0 -11 16 -14 35 -4 19 -13 40 -20 47 -7
8 -19 37 -26 66 -8 29 -17 52 -21 52 -4 0 -12 20 -18 45 -6 25 -15 45 -20 45
-4 0 -13 25 -20 55 -7 30 -16 55 -20 55 -5 0 -14 27 -21 60 -7 33 -16 60 -20
60 -4 0 -13 27 -20 60 -7 33 -16 60 -20 60 -4 0 -13 29 -20 65 -7 36 -16 65
-20 65 -5 0 -14 32 -20 70 -6 39 -15 70 -20 70 -4 0 -13 36 -21 80 -7 44 -16
80 -20 80 -4 0 -12 38 -19 85 -7 47 -16 85 -20 85 -4 0 -14 47 -21 105 -7 58
-16 105 -19 105 -4 0 -13 55 -20 123 -7 67 -16 124 -20 127 -7 5 -30 247 -30
317 0 24 -5 43 -12 45 -10 4 -13 115 -13 513 0 398 3 509 13 513 7 2 12 21 12
45 0 70 23 312 30 317 4 3 12 59 19 125 7 66 16 122 20 125 4 3 13 51 20 108
7 56 17 102 21 102 4 0 13 41 20 90 7 50 16 90 20 90 4 0 13 34 20 75 7 41 16
75 21 75 4 0 13 32 19 70 6 39 15 70 20 70 4 0 13 29 20 65 7 36 16 65 20 65
4 0 13 27 20 60 7 33 16 60 20 60 4 0 13 27 20 60 7 33 16 60 21 60 4 0 13 25
20 55 7 30 16 55 20 55 5 0 14 20 20 45 6 25 14 45 18 45 4 0 13 23 21 52 7
29 19 58 26 66 7 7 16 28 20 47 3 19 10 35 14 35 4 0 13 18 20 40 7 22 16 40
20 40 4 0 13 20 19 45 6 25 15 45 20 45 4 0 13 18 20 40 6 22 15 40 20 40 4 0
13 18 20 40 6 22 15 40 20 40 4 0 13 18 20 39 6 21 17 41 25 44 8 3 17 19 21
36 4 17 11 31 15 31 5 0 15 18 21 40 7 22 16 40 21 40 5 0 14 14 19 30 6 17
14 30 18 30 4 0 13 16 21 35 8 19 17 35 20 35 3 0 12 16 20 35 8 19 17 35 21
35 3 0 12 14 19 30 7 17 16 30 21 30 4 0 13 16 20 35 7 19 17 35 21 35 5 0 13
11 18 25 5 14 13 25 18 25 4 0 14 16 22 35 8 19 18 35 22 35 5 0 13 11 18 25
5 14 14 25 20 25 5 0 10 6 10 13 0 6 11 25 25 41 14 16 25 32 25 36 0 4 11 20
25 36 14 16 25 34 25 40 0 7 7 14 15 18 8 3 15 11 15 17 0 6 10 22 23 34 28
29 67 78 67 87 0 6 40 53 90 104 11 12 20 25 20 30 0 5 16 24 35 41 19 18 35
36 35 41 0 5 20 30 45 54 25 25 45 49 45 52 0 4 27 34 60 67 33 32 60 62 60
66 0 3 78 82 173 175 269 263 295 288 303 288 4 0 25 18 46 40 22 22 43 40 47
40 4 0 28 18 52 40 42 38 57 51 124 106 17 13 35 24 41 24 7 0 14 7 18 15 3 8
4 14 3 14 -1 -1 -10 -3 -19 -6z"/>
</g>
</svg>
