<?xml version="1.0" standalone="no"?>
<!DOCTYPE svg PUBLIC "-//W3C//DTD SVG 20010904//EN"
 "http://www.w3.org/TR/2001/REC-SVG-20010904/DTD/svg10.dtd">
<svg version="1.0" xmlns="http://www.w3.org/2000/svg"
 width="1134.000000pt" height="1134.000000pt" viewBox="0 0 1134.000000 1134.000000"
 preserveAspectRatio="xMidYMid meet">

<g transform="translate(0.000000,1134.000000) scale(0.100000,-0.100000)"
fill="#000000" stroke="none">
<path d="M5210 11249 c-131 -11 -420 -46 -480 -59 -25 -5 -97 -19 -160 -31
-346 -63 -865 -226 -1168 -365 -41 -19 -76 -34 -79 -34 -10 0 -319 -157 -361
-184 -23 -14 -44 -26 -48 -26 -6 0 -229 -135 -326 -198 -629 -407 -1223 -1001
-1630 -1630 -63 -97 -198 -320 -198 -326 0 -4 -11 -23 -24 -44 -28 -44 -132
-248 -174 -342 -16 -36 -41 -90 -54 -120 -136 -299 -296 -814 -357 -1150 -12
-63 -26 -135 -31 -160 -14 -65 -48 -353 -60 -504 -15 -195 -12 -695 5 -887 31
-337 72 -583 160 -939 38 -155 149 -500 195 -605 5 -11 19 -45 31 -75 12 -30
27 -69 34 -85 8 -17 23 -51 34 -77 74 -173 204 -427 279 -543 6 -11 17 -31 22
-44 10 -24 25 -46 153 -241 67 -103 149 -221 190 -275 496 -650 1104 -1178
1797 -1559 61 -33 391 -197 435 -216 251 -107 459 -183 655 -239 41 -12 98
-29 125 -36 82 -24 207 -55 260 -65 28 -5 93 -19 145 -30 113 -24 248 -45 465
-71 205 -25 775 -36 980 -20 364 29 661 75 943 145 34 9 88 22 120 30 209 52
604 190 790 277 35 16 65 29 68 29 12 0 386 191 479 245 451 260 804 532 1181
909 377 377 649 731 909 1181 108 187 281 543 330 680 10 28 22 55 26 60 3 6
19 46 34 90 15 44 41 118 57 165 17 47 36 106 44 133 8 26 21 71 30 100 8 28
22 79 30 112 8 33 22 87 30 120 70 277 119 601 145 950 16 219 5 767 -20 970
-26 217 -47 352 -71 465 -11 52 -25 118 -30 145 -10 53 -41 178 -65 260 -7 28
-24 84 -35 125 -23 78 -75 240 -90 275 -4 11 -16 43 -25 70 -15 43 -97 247
-125 310 -22 51 -184 377 -216 435 -220 400 -532 830 -819 1129 -460 481 -897
819 -1445 1118 -116 64 -380 193 -394 193 -3 0 -29 11 -58 24 -29 13 -78 33
-108 45 -30 12 -64 26 -75 31 -48 21 -279 101 -370 128 -187 57 -202 60 -405
106 -63 15 -133 31 -155 36 -96 23 -409 66 -614 85 -181 16 -727 19 -911 4z
m820 -858 c80 -6 174 -15 210 -20 36 -6 99 -15 140 -22 134 -19 175 -26 251
-44 41 -9 103 -23 139 -31 76 -17 129 -31 185 -49 22 -7 74 -23 115 -35 89
-26 261 -88 380 -137 424 -174 867 -437 1205 -716 470 -388 858 -854 1148
-1377 49 -89 134 -256 161 -320 70 -159 92 -211 116 -275 4 -11 17 -45 28 -75
25 -65 72 -211 96 -295 10 -33 22 -71 27 -85 5 -14 13 -45 19 -70 57 -266 73
-343 90 -457 68 -451 71 -990 9 -1393 -17 -108 -85 -445 -104 -515 -9 -33 -20
-78 -26 -100 -16 -64 -98 -312 -136 -410 -165 -425 -375 -807 -636 -1153 -100
-132 -133 -172 -144 -172 -4 0 -28 51 -52 113 -221 568 -576 1083 -1016 1475
-77 69 -162 142 -190 163 -27 20 -72 55 -100 76 -161 123 -373 252 -590 359
-185 91 -214 104 -232 104 -23 0 -14 16 40 71 286 288 501 673 585 1049 43
189 47 231 47 485 0 169 -5 270 -13 310 -56 257 -90 377 -128 462 -8 17 -14
34 -14 37 0 4 -19 46 -41 94 -177 373 -489 717 -842 931 -377 228 -859 342
-1277 302 -527 -51 -960 -249 -1332 -610 -249 -241 -432 -532 -541 -862 -89
-271 -111 -423 -104 -733 3 -147 10 -246 20 -296 40 -188 66 -290 77 -305 4
-5 11 -25 15 -43 4 -18 13 -45 21 -60 8 -15 14 -31 14 -35 0 -25 131 -271 199
-373 79 -120 238 -313 306 -373 21 -18 34 -36 29 -40 -5 -4 -31 -17 -59 -29
-371 -155 -780 -422 -1083 -705 -449 -420 -767 -886 -997 -1462 -5 -11 -15
-40 -24 -64 -9 -24 -19 -43 -24 -42 -28 3 -296 377 -430 603 -208 346 -413
834 -507 1203 -179 702 -203 1398 -73 2095 19 102 38 199 43 215 5 17 24 86
41 155 27 106 86 288 143 445 8 22 44 110 81 195 101 237 193 408 376 703 54
88 215 306 322 436 212 259 577 604 848 801 411 299 854 526 1339 686 76 26
252 75 317 90 35 8 93 21 130 30 209 47 420 78 653 94 80 6 165 12 190 14 72
6 402 -2 560 -13z m-240 -2581 c63 -6 129 -15 145 -20 17 -6 59 -19 95 -30
223 -67 384 -165 545 -332 166 -171 245 -307 323 -558 47 -152 60 -409 27
-575 -60 -312 -221 -588 -447 -769 -83 -67 -255 -176 -277 -176 -7 0 -22 -6
-34 -14 -32 -21 -159 -62 -252 -83 -61 -13 -126 -18 -270 -18 -177 0 -198 2
-300 28 -228 60 -388 143 -557 291 -132 115 -231 245 -303 399 -68 143 -96
239 -120 406 -18 124 -19 173 -4 295 31 266 115 472 277 683 114 146 273 273
449 354 231 108 434 142 703 119z m195 -3460 c275 -30 541 -97 798 -202 115
-47 350 -165 415 -209 24 -16 45 -29 47 -29 8 0 104 -67 215 -151 435 -328
778 -780 983 -1294 74 -186 167 -510 150 -525 -78 -68 -333 -244 -510 -351
-110 -67 -429 -233 -518 -271 -22 -9 -62 -26 -90 -38 -70 -31 -295 -113 -385
-140 -41 -12 -87 -26 -102 -32 -14 -5 -41 -14 -60 -18 -18 -5 -76 -20 -128
-33 -88 -23 -330 -71 -480 -96 -424 -69 -1114 -54 -1545 34 -299 61 -489 113
-725 198 -97 35 -286 110 -318 126 -9 5 -89 44 -177 87 -166 80 -365 194 -520
297 -126 84 -323 230 -329 244 -3 6 -1 24 4 40 5 15 21 75 35 133 26 103 84
285 110 345 7 17 32 73 54 125 69 159 185 361 312 540 170 241 441 509 695
688 176 124 438 270 569 317 28 10 55 22 60 26 6 4 26 12 45 17 19 6 69 22
110 36 238 82 457 126 730 146 126 9 428 4 555 -10z"/>
</g>
</svg>
